<svg data-name="business" xmlns="http://www.w3.org/2000/svg" viewBox="0 0 75 75"><title>Business</title><path d="M64 65h-2.53V28.3a3.1 3.1 0 0 0-3.1-3.1h-5.64a3.1 3.1 0 0 0-3.1 3.1V65h-6.41V44.92a3.1 3.1 0 0 0-3.1-3.1h-5.65a3.1 3.1 0 0 0-3.1 3.1V65H25V54.59a3.1 3.1 0 0 0-3.1-3.1h-5.68a3.1 3.1 0 0 0-3.1 3.1V65h-2.66a1.15 1.15 0 1 0 0 2.3H64a1.15 1.15 0 1 0 0-2.3zm-41.34 0h-7.24V54.59a.79.79 0 0 1 .79-.79h5.65a.79.79 0 0 1 .79.79V65zm18.25 0h-7.23V44.92a.79.79 0 0 1 .79-.79h5.65a.79.79 0 0 1 .79.79zm18.25 0h-7.23V28.3a.79.79 0 0 1 .79-.79h5.65a.79.79 0 0 1 .79.79V65zM61.47 9.52a1.15 1.15 0 0 0-1.21-1.21h-7a1.15 1.15 0 1 0 0 2.3h4.3L46.15 22l-4.29-4.3a1.15 1.15 0 0 0-1.63 0L19.52 38.41A1.15 1.15 0 0 0 21.15 40L41 20.15l4.29 4.29a1.15 1.15 0 0 0 1.63 0l12.2-12.2v3.89a1.15 1.15 0 1 0 2.3 0V9.58s.05-.04.05-.06z"/><circle cx="16.45" cy="43.25" r="1.15"/></svg>