<svg data-name="days_out" xmlns="http://www.w3.org/2000/svg" viewBox="0 0 75 75"><title>Days Out Attractions</title><path d="M40.66 37.41a4.52 4.52 0 0 0 .43-1.91 4.58 4.58 0 1 0-9.17 0 4.51 4.51 0 0 0 .43 1.91 6 6 0 0 0-5 5.91V52a.92.92 0 0 0 .92.92H31v11.91a.92.92 0 0 0 .92.92h9.17a.92.92 0 0 0 .92-.92V52.92h2.75a.92.92 0 0 0 .92-.92v-8.68a6 6 0 0 0-5.02-5.91zm3.18 13.67H42v-9.16h-1.83v22h-2.75V51.08h-1.84v12.84h-2.75v-22H31v9.17h-1.83v-7.77a4.16 4.16 0 0 1 4.16-4.16h.78a.92.92 0 0 0 .6-1.61 2.71 2.71 0 0 1-1-2.06 2.75 2.75 0 0 1 5.5 0 2.71 2.71 0 0 1-1 2.06.92.92 0 0 0 .6 1.61h.78a4.16 4.16 0 0 1 4.16 4.16zM62 33.15a3.07 3.07 0 0 0 0-1.83 3.16 3.16 0 0 0-2.24-2.13 3.3 3.3 0 0 0-2.85.58 3.07 3.07 0 0 0-1.2 2.43 3 3 0 0 0 .15.95 2.69 2.69 0 0 0-2 2.57V41a.92.92 0 0 0 .92.92h.92v4.58a.92.92 0 0 0 .92.92h4.58a.92.92 0 0 0 .92-.92v-4.59h.92A.92.92 0 0 0 64 41v-5.28a2.69 2.69 0 0 0-2-2.57zm.15 6.93h-.92a.92.92 0 0 0-.92.92v4.59h-2.73V41a.92.92 0 0 0-.92-.92h-.92v-4.36a.88.88 0 0 1 .92-.84h.93a.92.92 0 0 0 .53-1.66 1.22 1.22 0 0 1-.05-2 1.48 1.48 0 0 1 1.28-.22 1.31 1.31 0 0 1 .93.86 1.22 1.22 0 0 1-.49 1.38.92.92 0 0 0 .53 1.66h.93a.88.88 0 0 1 .92.84zM17.1 33.15a3.07 3.07 0 0 0 0-1.83 3.16 3.16 0 0 0-2.24-2.13 3.3 3.3 0 0 0-2.85.58 3.07 3.07 0 0 0-1.2 2.43 3 3 0 0 0 .15.95 2.69 2.69 0 0 0-2 2.57V41a.92.92 0 0 0 .92.92h.92v4.58a.92.92 0 0 0 .92.92h4.58a.92.92 0 0 0 .92-.92v-4.59h.92a.92.92 0 0 0 .92-.92v-5.27a2.69 2.69 0 0 0-1.96-2.57zm.15 6.93h-.92a.92.92 0 0 0-.92.92v4.59h-2.74V41a.92.92 0 0 0-.92-.92h-.92v-4.36a.88.88 0 0 1 .92-.84h.93a.92.92 0 0 0 .53-1.66 1.22 1.22 0 0 1-.05-2 1.48 1.48 0 0 1 1.28-.22 1.31 1.31 0 0 1 .93.86 1.22 1.22 0 0 1-.49 1.38.92.92 0 0 0 .53 1.66h.93a.88.88 0 0 1 .92.84zM22.64 11.89a3.45 3.45 0 0 0-2.55-1.14 3.45 3.45 0 0 0-2.55 1.14l-1.21 1.3-1.21-1.3a3.45 3.45 0 0 0-2.55-1.14A3.45 3.45 0 0 0 10 11.89a4 4 0 0 0 0 5.31l5.64 6.1a.92.92 0 0 0 1.3 0l5.64-6.1a4 4 0 0 0 .06-5.31zm-1.34 4.06l-5 5.37-5-5.37a2.11 2.11 0 0 1 0-2.82 1.6 1.6 0 0 1 2.33-.13l.15.15 1.88 2a1 1 0 0 0 1.34 0l1.88-2a1.6 1.6 0 0 1 2.27-.15l.15.15a2.11 2.11 0 0 1 0 2.8zM63 11.89a3.45 3.45 0 0 0-2.55-1.14 3.45 3.45 0 0 0-2.55 1.14l-1.21 1.3-1.21-1.3a3.45 3.45 0 0 0-2.55-1.14 3.45 3.45 0 0 0-2.55 1.14 4 4 0 0 0 0 5.31L56 23.29a.92.92 0 0 0 1.35 0l5.65-6.1a4 4 0 0 0 0-5.3zm-1.35 4.06l-5 5.37-5-5.37a2.11 2.11 0 0 1 0-2.82A1.6 1.6 0 0 1 54 13l.15.15 1.88 2a1 1 0 0 0 1.34 0l1.88-2a1.6 1.6 0 0 1 2.23-.15l.15.15a2.11 2.11 0 0 1 0 2.8zM60 49.43a.92.92 0 0 0-1.1 0l-3.7 2.75 1.1 1.47L58.5 52v7.33h-11v1.83h11.92a.92.92 0 0 0 .92-.92V52l2.2 1.65 1.1-1.47zM14.5 59.33V52l2.2 1.65 1.1-1.47-3.67-2.75a.92.92 0 0 0-1.1 0l-3.66 2.75 1.1 1.47 2.2-1.65v8.25a.92.92 0 0 0 .92.92H25.5v-1.84zM27.33 59.33h1.83v1.83h-1.83zM43.83 59.33h1.83v1.83h-1.83z"/></svg>