<svg data-name="fashion" xmlns="http://www.w3.org/2000/svg" viewBox="0 0 75 75"><title>Fashion</title><path d="M31.3 51.85a4.4 4.4 0 1 0 4.4 4.4 4.4 4.4 0 0 0-4.4-4.4zm0 6.34a1.94 1.94 0 1 1 1.94-1.94 1.95 1.95 0 0 1-1.94 1.94zM46.73 51.85a4.4 4.4 0 1 0 4.4 4.4 4.4 4.4 0 0 0-4.4-4.4zm0 6.34a1.94 1.94 0 1 1 1.94-1.94 1.95 1.95 0 0 1-1.94 1.94zM47.81 28.68h-17.6a1.23 1.23 0 1 0 0 2.46h17.6a1.23 1.23 0 1 0 0-2.46zM46.85 35.06H31.17a1.23 1.23 0 0 0 0 2.46h15.68a1.23 1.23 0 0 0 0-2.46z"/><path d="M59.79 23.21a2.45 2.45 0 0 0-1.9-.9H19.63l-.77-3.75a2.46 2.46 0 0 0-1.43-1.76L12 14.46a1.23 1.23 0 0 0-1 2.25L16.45 19l5.94 28.9a2.47 2.47 0 0 0 2.41 2h29.43a1.23 1.23 0 1 0 0-2.46H24.8l-.72-3.51h30.37a2.47 2.47 0 0 0 2.41-2l3.44-16.67a2.45 2.45 0 0 0-.51-2.05zm-5.34 18.23H23.57l-3.44-16.68h37.76z"/></svg>