<svg data-name="finance" xmlns="http://www.w3.org/2000/svg" viewBox="0 0 75 75"><title>Food</title><path d="M22.69 13a8 8 0 0 0-6.42-3.49A8 8 0 0 0 9.85 13a13.3 13.3 0 0 0-2.49 8 13.3 13.3 0 0 0 2.49 8 9 9 0 0 0 3.29 2.78l-1.88 28.31a5 5 0 1 0 10 0l-1.87-28.34a9 9 0 0 0 3.3-2.75 13.3 13.3 0 0 0 2.49-8 13.3 13.3 0 0 0-2.49-8zm-4.63 49.1a2.46 2.46 0 0 1-4.25-1.84l1.85-27.83h1.2l1.85 27.83a2.43 2.43 0 0 1-.65 1.84zm-1.79-32.2a4.62 4.62 0 0 1-1.34-.2h-.11c-2.8-.92-4.9-4.45-4.9-8.65 0-4.9 2.85-8.89 6.35-8.89s6.35 4 6.35 8.89-2.85 8.85-6.35 8.85zM63.07 42.95V11a1.28 1.28 0 0 0-1.95-1.26 17.5 17.5 0 0 0-8.35 15v16.78a2.72 2.72 0 0 0 2.64 2.72v17.35a3.84 3.84 0 0 0 7.67 0V43zm-7.59-1.28a.16.16 0 0 1-.16-.16V24.73a14.94 14.94 0 0 1 5.18-11.37v28.31zm5 19.92a1.27 1.27 0 0 1-2.54 0V44.24h2.54v17.35zM43.6 9.55a1.28 1.28 0 0 0-1.28 1.28V25.4h-3.27V10.84a1.28 1.28 0 0 0-2.56 0V25.4h-3.27V10.84a1.28 1.28 0 1 0-2.56 0v18.55a3.79 3.79 0 0 0 3.79 3.79h.23l-1.8 27a4.9 4.9 0 1 0 9.79 0l-1.8-27h.23a3.79 3.79 0 0 0 3.79-3.79V10.84a1.28 1.28 0 0 0-1.29-1.29zm-4.12 52.59a2.34 2.34 0 0 1-4-1.75l1.81-27.21h1l1.81 27.21a2.31 2.31 0 0 1-.62 1.75zm2.84-32.75a1.23 1.23 0 0 1-1.23 1.23h-6.64a1.23 1.23 0 0 1-1.23-1.23V28h9.1z"/></svg>