<svg data-name="health" xmlns="http://www.w3.org/2000/svg" viewBox="0 0 75 75"><title>Health</title><path d="M55 39a8 8 0 0 0-7.93 7H36v-6.12A4 4 0 0 0 38.51 38l12.92-21.85A4.07 4.07 0 0 0 47.92 10h-2.27a3.5 3.5 0 0 0-3.15-2C40.9 8 37 9.23 37 11.5s3.9 3.5 5.5 3.5a3.49 3.49 0 0 0 3.45-3h2a2.08 2.08 0 0 1 1.78 3.13L36.78 37a2.08 2.08 0 0 1-3.57 0L19.93 15.13A2.07 2.07 0 0 1 21.71 12h2.34a3.5 3.5 0 0 0 3.45 3c1.6 0 5.5-1.23 5.5-3.5S29.1 8 27.5 8a3.5 3.5 0 0 0-3.15 2h-2.64a4.07 4.07 0 0 0-3.5 6.16L31.49 38A4 4 0 0 0 34 39.87V46h-9a11 11 0 1 0 11 11v-9h11.07A8 8 0 1 0 55 39zM42.5 13c-1.23 0-3.36-1-3.5-1.5.14-.51 2.26-1.5 3.5-1.5a1.5 1.5 0 0 1 0 3zm-15-3c1.23 0 3.36 1 3.5 1.5-.14.51-2.26 1.5-3.5 1.5a1.5 1.5 0 0 1 0-3zM34 57a9 9 0 1 1-9-9h9zm21-4a6 6 0 1 1 6-6 6 6 0 0 1-6 6z"/><path d="M55 43a4 4 0 1 0 4 4 4 4 0 0 0-4-4zm0 6a2 2 0 1 1 2-2 2 2 0 0 1-2 2z"/></svg>