<svg data-name="kids babies toys" xmlns="http://www.w3.org/2000/svg" viewBox="0 0 75 75"><title>Artboard 1</title><path d="M40.74 25.24h3.16v9.84h-3.16zM59.09 52.08l-8-6a4.92 4.92 0 0 0-5.92 7.86l8 6v-.06a8.09 8.09 0 0 1 5.92-7.8zM56.38 33.61a8 8 0 0 1 2.71-1.34l-8-6a4.87 4.87 0 0 0-3-1h-1v10.29l.32.21 3.07 2.31zM58.91 48l5.29-4a4.92 4.92 0 0 0-5.92-7.86l-8 6A8 8 0 0 1 53 43.51zM61.25 55a4.92 4.92 0 1 0 4.92 4.92A4.92 4.92 0 0 0 61.25 55zM34.41 38.24h3.16v26.55h-3.16zM12.16 38.24h3.16v26.55h-3.16zM37 17.32l-3.16-6.54H15.91l-3.16 6.54z"/><path d="M31.25 35.07h6.33V20.49h-3.17v4.75h-6.32v9.84h-6.44v-9.84h-6.33v-4.75h-3.16v14.58h6.33v29.72h12.76zm-3.16 3.16v3.47h-6.44v-3.46zm-6.44 13.28h6.43V55h-6.43zm0-3.16v-3.47h6.43v3.47zm0 13.28v-3.48h6.43v3.47z"/></svg>