<svg data-name="mobile tv broadband" xmlns="http://www.w3.org/2000/svg" viewBox="0 0 75 75"><title>Artboard 1</title><path d="M36.58 50.78a6 6 0 1 0 6 6 6 6 0 0 0-6-6zM68.47 30A41.57 41.57 0 0 0 4.7 30a3 3 0 0 0 4.55 3.8 35.62 35.62 0 0 1 54.66 0 3 3 0 0 0 4.56-3.8zm-31.89-3a29.7 29.7 0 0 0-22.77 10.62 3 3 0 0 0 4.56 3.83 23.74 23.74 0 0 1 36.44 0 3 3 0 0 0 4.56-3.83A29.71 29.71 0 0 0 36.58 27zm0 11.9a17.82 17.82 0 0 0-13.67 6.38 3 3 0 0 0 4.56 3.83 11.87 11.87 0 0 1 18.22 0 3 3 0 0 0 4.56-3.83 17.82 17.82 0 0 0-13.67-6.4z"/></svg>