<svg data-name="restaurants_takeaways" xmlns="http://www.w3.org/2000/svg" viewBox="0 0 75 75"><title>Artboard 1</title><path d="M25.42 36.74a1.17 1.17 0 0 0-2.35 0c0 3.08 3.4 7.32 3.79 7.79A1.17 1.17 0 1 0 28.68 43c-1.26-1.49-3.26-4.56-3.26-6.26zM50.08 35.57a1.17 1.17 0 0 0-1.17 1.17c0 1.69-2 4.76-3.26 6.3a1.17 1.17 0 0 0 1.82 1.49c.39-.47 3.79-4.71 3.79-7.79a1.17 1.17 0 0 0-1.18-1.17zM37.17 35.57A1.17 1.17 0 0 0 36 36.74v7a1.17 1.17 0 1 0 2.35 0v-7a1.17 1.17 0 0 0-1.18-1.17z"/><path d="M50.08 16.78a12.3 12.3 0 0 0-2.23.24 14 14 0 0 0-21.38 0 12.31 12.31 0 0 0-2.23-.24 12.91 12.91 0 0 0-5.84 24.43v17.75a4.79 4.79 0 0 0 4.79 4.8h28A4.8 4.8 0 0 0 56 59V41.19a12.91 12.91 0 0 0-5.87-24.41zM53.61 59a2.45 2.45 0 0 1-2.44 2.44h-28A2.44 2.44 0 0 1 20.73 59v-4.6h32.88zm.73-19.6l-.18.09a1.18 1.18 0 0 0-.54.82 1.14 1.14 0 0 0 0 .2V52H20.74V40.48a1.21 1.21 0 0 0 0-.19 1.18 1.18 0 0 0-.19-.49 1.16 1.16 0 0 0-.35-.34l-.18-.1a10.56 10.56 0 0 1 4.22-20.25h.7a14 14 0 0 0-1.88 7 1.17 1.17 0 0 0 2.35 0 11.74 11.74 0 1 1 23.48 0 1.17 1.17 0 1 0 2.35 0 14 14 0 0 0-1.88-7h.7a10.56 10.56 0 0 1 4.25 20.23z"/></svg>