<svg data-name="sport" xmlns="http://www.w3.org/2000/svg" viewBox="0 0 75 75"><title>Artboard 1</title><g data-name="36"><path d="M24.52 21.22H45a1 1 0 0 0 0-1.95H24.52a1 1 0 0 0 0 1.95zM6.2 30.75h20.49a1 1 0 1 0 0-1.95H6.2a1 1 0 1 0 0 1.95zM11.7 40.78a1 1 0 0 0 1 1h20.46a1 1 0 0 0 0-1.95H12.68a1 1 0 0 0-.98.95zM23.42 52.1H5a1 1 0 1 0 0 1.95h18.4a1 1 0 1 0 0-1.95zM56.54 27.33A5.32 5.32 0 1 0 51.21 22a5.32 5.32 0 0 0 5.33 5.33z"/><path d="M65.29 25.8c-3.06 4.28-7.15 4.78-11.55 2.16l-1.92-1.09c-7.09-4.2-14.16-2.55-18.91 4.13-2 2.83 2.65 5.51 4.64 2.71 2.45-3.43 5.57-4.43 9-3.34-1.75 3-3.27 6-5.43 10.32s-6.91 7.7-11.48 5c-3.3-1.93-6.27 2.81-3 4.73a13.49 13.49 0 0 0 17.29-3.33 2.93 2.93 0 0 0 .42.18 34.53 34.53 0 0 1 8.27 4.9c1.22 1 3.31 6.11 4.55 8.68 1.51 3.12 6.38.85 4.86-2.28-1.41-2.91-3.77-8.73-5.62-10.2a46.29 46.29 0 0 0-6.79-4.62Q52.1 39 54.8 34.29c5.76 1.76 11.2-.29 15.13-5.78C72 25.69 67.29 23 65.29 25.8z"/></g></svg>