<svg data-name="Layer 1" xmlns="http://www.w3.org/2000/svg" viewBox="0 0 75 75"><title>Artboard 1</title><path d="M36.58 11.5a27.08 27.08 0 1 0 27.09 27.08A27.08 27.08 0 0 0 36.58 11.5zm-6.69 2.74A23 23 0 0 0 24 23.38a39.58 39.58 0 0 1-5.9-1.94 25.25 25.25 0 0 1 11.79-7.2zm-13.07 8.64a40.69 40.69 0 0 0 6.55 2.31 43.67 43.67 0 0 0-2 12.48h-10a25.11 25.11 0 0 1 5.45-14.79zm0 31.31a25.11 25.11 0 0 1-5.44-14.75h10a43.67 43.67 0 0 0 2 12.51 40.7 40.7 0 0 0-6.56 2.24zm1.24 1.51v-.07A39.55 39.55 0 0 1 24 53.69a23 23 0 0 0 5.93 9.24 25.25 25.25 0 0 1-11.87-7.23zm17.61 8.06c-4.09-.52-7.67-4.49-9.94-10.38a54.1 54.1 0 0 1 9.94-1.06zm0-13.34a55.8 55.8 0 0 0-10.55 1.14 42.52 42.52 0 0 1-1.93-12.06h12.48zm0-12.78H23.19a42.52 42.52 0 0 1 1.92-12.17 55.81 55.81 0 0 0 10.55 1.22zm0-12.78a54.14 54.14 0 0 1-9.94-1c2.28-5.92 5.85-9.87 9.94-10.4zM56.35 23a25.11 25.11 0 0 1 5.44 14.75h-10a43.67 43.67 0 0 0-2-12.54A40.7 40.7 0 0 0 56.35 23zm-1.25-1.53a39.58 39.58 0 0 1-5.9 1.94 23 23 0 0 0-5.92-9.17 25.24 25.24 0 0 1 11.82 7.23zm-17.6-8.06c4.09.52 7.67 4.49 9.94 10.38a54.13 54.13 0 0 1-9.94 1.06zm0 13.27A55.78 55.78 0 0 0 48 25.53a42.52 42.52 0 0 1 2 12.18H37.5zm0 12.85H50a42.52 42.52 0 0 1-2 12.18 55.8 55.8 0 0 0-10.5-1.22zm0 24.22V52.31a54.11 54.11 0 0 1 9.94 1c-2.28 5.97-5.85 9.92-9.94 10.45zm5.78-.83a22.94 22.94 0 0 0 5.93-9.15 39.55 39.55 0 0 1 5.9 1.94 25.25 25.25 0 0 1-11.83 7.22zm13.07-8.64A40.68 40.68 0 0 0 49.8 52a43.67 43.67 0 0 0 2-12.48h10a25.11 25.11 0 0 1-5.45 14.77z"/></svg>